<svg width="598" height="242" viewBox="0 0 598 242" fill="none" xmlns="http://www.w3.org/2000/svg">
<path fill-rule="evenodd" clip-rule="evenodd" d="M248.288 61V144.5H232.973L232.172 138.1C228.368 143.1 223.363 145.5 217.457 145.5C212.652 145.5 208.548 144.2 205.145 141.7C201.741 139.1 199.038 135.6 197.237 131.1C195.435 126.6 194.534 121.5 194.534 115.7V114.6C194.534 108.6 195.435 103.4 197.237 98.8C199.038 94.3 201.641 90.8 205.145 88.3C208.648 85.8 212.752 84.5 217.557 84.5C223.063 84.5 227.667 86.6 231.271 90.8V61H248.288ZM221.761 131.9C224.064 131.9 225.966 131.4 227.567 130.5C229.169 129.5 230.37 128.1 231.371 126.3V103.9C229.569 100.2 226.466 98.3 221.962 98.3C218.358 98.3 215.755 99.8 214.054 102.7C212.452 105.6 211.651 109.6 211.651 114.7V115.8C211.651 120.7 212.452 124.6 214.054 127.5C215.555 130.4 218.158 131.9 221.761 131.9ZM118.658 132.6C121.26 128.3 122.562 123.2 122.562 117.2V65.3H104.844V117.1C104.844 122 103.743 125.6 101.541 127.9C99.3385 130.2 96.1353 131.3 91.8309 131.3C83.0221 131.3 78.6177 126.6 78.6177 117.1V65.3H61V117.1C61 123.1 62.3013 128.3 64.9039 132.5C67.5065 136.7 71.1101 140 75.7148 142.2C80.3194 144.4 85.7248 145.5 91.8309 145.5C97.9371 145.5 103.242 144.4 107.847 142.2C112.552 140.1 116.155 136.9 118.658 132.6ZM180.92 89.9C177.717 86.3 173.112 84.6 167.307 84.6C163.803 84.6 160.7 85.3 157.797 86.6C154.994 87.9 152.492 89.9 150.49 92.5L149.889 85.7H133.973V144.5H150.89V103.2C152.892 99.9 155.895 98.3 159.899 98.3C162.902 98.3 165.205 99 166.606 100.3C168.007 101.6 168.808 103.9 168.808 107.3V144.5H185.825V107.4C185.825 99.3 184.124 93.5 180.92 89.9ZM275.015 120.6H311.952V113.4C311.952 107.5 310.951 102.4 308.849 98.1C306.847 93.8 303.844 90.4 299.84 88.1C295.936 85.7 291.131 84.6 285.625 84.6C279.82 84.6 274.815 85.9 270.61 88.6C266.406 91.2 263.203 94.8 261.001 99.4C258.798 104 257.697 109.2 257.697 115V117C257.697 122.2 258.899 127 261.301 131.3C263.703 135.6 267.107 139.1 271.611 141.7C276.116 144.2 281.421 145.5 287.427 145.5C292.733 145.5 297.437 144.5 301.441 142.5C305.445 140.5 308.448 138 310.55 135.1L302.542 125.6C300.841 127.7 298.739 129.3 296.436 130.3C294.034 131.3 291.431 131.8 288.628 131.8C284.925 131.8 281.922 130.8 279.619 128.8C277.217 126.9 275.715 124.1 275.015 120.6ZM292.833 100.9C294.534 102.6 295.335 105 295.335 108V109.4H275.115C276.316 102 279.82 98.3 285.525 98.3C288.728 98.3 291.131 99.2 292.833 100.9ZM349.79 84.6C351.792 84.6 353.493 84.8 354.695 85.3L354.494 101.7C351.692 101.4 349.79 101.3 348.589 101.3C345.586 101.3 343.183 101.8 341.281 102.7C339.479 103.6 338.078 105.1 337.177 106.9V144.5H320.16V85.7H336.076L336.576 92.9C338.078 90.2 339.88 88.2 342.082 86.8C344.484 85.3 346.987 84.6 349.79 84.6ZM362.503 61V144.5H379.52V61H362.503ZM401.141 61.8C403.944 61.8 406.246 62.6 407.948 64.2C409.65 65.8 410.551 67.9 410.551 70.4C410.551 72.9 409.65 75 407.948 76.7C406.246 78.3 403.944 79.1 401.141 79.1C398.338 79.1 396.036 78.3 394.334 76.7C392.633 75.1 391.732 73 391.732 70.4C391.732 67.8 392.633 65.7 394.334 64.2C396.036 62.6 398.338 61.8 401.141 61.8ZM392.733 144.5V85.7H409.75V144.5H392.733ZM468.609 89.9C465.406 86.3 460.801 84.6 454.995 84.6C451.492 84.6 448.389 85.3 445.486 86.6C442.683 87.9 440.18 89.9 438.178 92.5L437.578 85.7H421.662V144.5H438.579V103.2C440.581 99.9 443.584 98.3 447.588 98.3C450.591 98.3 452.893 99 454.295 100.3C455.696 101.6 456.497 103.9 456.497 107.3V144.5H473.514V107.4C473.514 99.3 471.812 93.5 468.609 89.9ZM536.877 120.6H499.94C500.641 124.1 502.143 126.8 504.445 128.9C506.847 130.9 509.85 131.9 513.454 131.9C516.257 131.9 518.859 131.4 521.262 130.4C523.664 129.4 525.666 127.8 527.368 125.7L535.376 135.2C533.274 138.1 530.271 140.6 526.267 142.6C522.263 144.6 517.658 145.6 512.253 145.6C506.147 145.6 500.941 144.3 496.437 141.8C491.932 139.2 488.529 135.8 486.127 131.4C483.724 127.1 482.523 122.3 482.523 117.1V115C482.523 109.2 483.624 104 485.826 99.4C488.028 94.8 491.232 91.2 495.436 88.6C499.64 86 504.645 84.6 510.451 84.6C515.956 84.6 520.761 85.8 524.665 88.1C528.569 90.4 531.572 93.8 533.674 98.1C535.776 102.4 536.777 107.5 536.777 113.4L536.877 120.6ZM520.261 108C520.261 105 519.46 102.6 517.758 100.9C516.157 99.2 513.654 98.3 510.451 98.3C504.645 98.3 501.242 102 500.04 109.4H520.261V108ZM78.4175 163.6H61V181H78.4175V163.6ZM113.252 163.6H95.835V181H113.252V163.6ZM273.413 163.6H290.831V181H273.413V163.6ZM414.355 163.6H396.937V181H414.355V163.6ZM431.772 163.6H536.877V181H431.772V163.6ZM255.996 163.6H130.67V181H255.996V163.6ZM308.248 163.6H379.62V181H308.248V163.6Z" fill="black"/>
<path d="M536.277 65.6C535.876 64.7 535.376 63.9 534.675 63.2C533.975 62.5 533.174 62 532.273 61.6C531.372 61.2 530.371 61 529.37 61C528.369 61 527.368 61.2 526.467 61.6C525.566 62 524.765 62.5 524.065 63.2C523.364 63.9 522.863 64.7 522.463 65.6C522.063 66.5 521.862 67.5 521.862 68.5C521.862 69.5 522.063 70.5 522.463 71.4C522.863 72.3 523.364 73.1 524.065 73.8C524.765 74.5 525.566 75 526.467 75.4C527.368 75.8 528.369 76 529.37 76C530.371 76 531.372 75.8 532.273 75.4C533.174 75 533.975 74.5 534.675 73.8C535.376 73.1 535.876 72.3 536.277 71.4C536.677 70.5 536.877 69.5 536.877 68.5C536.877 67.5 536.677 66.5 536.277 65.6ZM529.27 74.4C525.966 74.4 523.264 71.7 523.264 68.5C523.264 65.2 525.966 62.6 529.27 62.6C532.573 62.6 535.276 65.3 535.276 68.5C535.376 71.8 532.573 74.4 529.27 74.4Z" fill="black"/>
<path d="M531.272 68.6C532.173 68.1 532.673 67.4 532.673 66.5C532.673 65.7 532.273 65 531.672 64.6C530.971 64.1 530.071 63.9 528.969 63.9C528.269 63.9 527.368 64 526.467 64.1H526.367V72.7H527.868V69.1H529.27C529.87 69.1 530.271 69.4 530.671 69.9C531.072 70.5 531.372 71.4 531.472 72.6V72.7H532.973C532.973 72.7 532.673 71 532.173 69.8C531.972 69.3 531.572 68.9 531.272 68.6ZM529.07 67.9H527.768V65.3C528.069 65.3 528.469 65.3 528.869 65.3C530.371 65.3 531.172 65.7 531.172 66.6C531.072 67.4 530.471 67.9 529.07 67.9Z" fill="black"/>
</svg>
